<svg width="28" height="28" viewBox="0 0 28 28" fill="none" xmlns="http://www.w3.org/2000/svg">
<path d="M14 13.5484C14.7482 13.5484 15.3548 12.9418 15.3548 12.1935C15.3548 11.4453 14.7482 10.8387 14 10.8387V13.5484ZM1.35484 10.8387C0.606588 10.8387 0 11.4453 0 12.1935C0 12.9418 0.606588 13.5484 1.35484 13.5484V10.8387ZM14 10.8387C13.2518 10.8387 12.6452 11.4453 12.6452 12.1935C12.6452 12.9418 13.2518 13.5484 14 13.5484V10.8387ZM26.6452 13.5484C27.3934 13.5484 28 12.9418 28 12.1935C28 11.4453 27.3934 10.8387 26.6452 10.8387V13.5484ZM12.6452 12.1935C12.6452 12.9418 13.2518 13.5484 14 13.5484C14.7482 13.5484 15.3548 12.9418 15.3548 12.1935H12.6452ZM15.3548 1.35484C15.3548 0.606588 14.7482 0 14 0C13.2518 0 12.6452 0.606588 12.6452 1.35484H15.3548ZM2.70968 12.1935C2.70968 11.4453 2.10309 10.8387 1.35484 10.8387C0.606588 10.8387 0 11.4453 0 12.1935H2.70968ZM28 12.1935C28 11.4453 27.3934 10.8387 26.6452 10.8387C25.8969 10.8387 25.2903 11.4453 25.2903 12.1935H28ZM0 12.1935C0 12.9418 0.606588 13.5484 1.35484 13.5484C2.10309 13.5484 2.70968 12.9418 2.70968 12.1935H0ZM14 2.70968C14.7482 2.70968 15.3548 2.10309 15.3548 1.35484C15.3548 0.606588 14.7482 0 14 0V2.70968ZM25.2903 12.1935C25.2903 12.9418 25.8969 13.5484 26.6452 13.5484C27.3934 13.5484 28 12.9418 28 12.1935H25.2903ZM14 0C13.2518 0 12.6452 0.606588 12.6452 1.35484C12.6452 2.10309 13.2518 2.70968 14 2.70968V0ZM14 10.8387H1.35484V13.5484H14V10.8387ZM14 13.5484H26.6452V10.8387H14V13.5484ZM15.3548 12.1935V1.35484H12.6452V12.1935H15.3548ZM0 12.1935V19.4194H2.70968V12.1935H0ZM0 19.4194C0 24.1584 3.84169 28 8.58064 28V25.2903C5.33819 25.2903 2.70968 22.6618 2.70968 19.4194H0ZM8.58064 28H19.4194V25.2903H8.58064V28ZM19.4194 28C24.1584 28 28 24.1584 28 19.4194H25.2903C25.2903 22.6618 22.6618 25.2903 19.4194 25.2903V28ZM28 19.4194V12.1935H25.2903V19.4194H28ZM2.70968 12.1935V8.58064H0V12.1935H2.70968ZM2.70968 8.58064C2.70968 5.33819 5.33819 2.70968 8.58064 2.70968V0C3.84169 0 0 3.84169 0 8.58064H2.70968ZM8.58064 2.70968H14V0H8.58064V2.70968ZM28 12.1935V8.58064H25.2903V12.1935H28ZM28 8.58064C28 3.84169 24.1584 0 19.4194 0V2.70968C22.6618 2.70968 25.2903 5.33819 25.2903 8.58064H28ZM19.4194 0H14V2.70968H19.4194V0Z" fill="#4C5573"/>
</svg>
