<svg width="30" height="24" viewBox="0 0 30 24" fill="none" xmlns="http://www.w3.org/2000/svg">
<path fill-rule="evenodd" clip-rule="evenodd" d="M2.41773 0.631302C2.6357 0.242487 3.0585 0 3.51845 0H10.6944C11.1544 0 11.5772 0.242485 11.7952 0.631299L12.8764 2.56H26.4816C27.8764 2.56 29.1668 3.5887 29.1668 5.04V7.6C29.1668 8.26274 28.6072 8.8 27.9168 8.8C27.2265 8.8 26.6668 8.26274 26.6668 7.6V5.04L26.6664 5.03898C26.665 5.03604 26.6597 5.02653 26.6457 5.01405C26.6171 4.98854 26.5622 4.96 26.4816 4.96H12.1296C11.6697 4.96 11.2469 4.71751 11.0289 4.3287L9.94764 2.4H4.26525L3.48702 3.78817C3.38412 3.9717 3.33326 4.16865 3.33326 4.36434V7.6C3.33326 8.26274 2.77361 8.8 2.08325 8.8C1.39289 8.8 0.833239 8.26274 0.833239 7.6V4.36434C0.833239 3.76519 0.989889 3.17817 1.28557 2.65077L2.41773 0.631302Z" fill="#4C5573"/>
<path fill-rule="evenodd" clip-rule="evenodd" d="M0.0104551 9.21168C-0.12325 7.74775 1.04051 6.4 2.63818 6.4H27.3618C28.9595 6.4 30.1232 7.74778 29.9896 9.21161L28.8537 21.648C28.7355 22.9437 27.6289 24 26.226 24H3.77397C2.37102 24 1.26457 22.9436 1.14625 21.6481L0.0104551 9.21168ZM2.55116 8.84313C2.51816 8.8791 2.49465 8.93341 2.50092 9.00206L3.63671 21.4384C3.64215 21.4979 3.66824 21.5407 3.69735 21.5672C3.7258 21.5931 3.75201 21.6 3.77397 21.6H26.226C26.2591 21.6 26.3516 21.5664 26.3633 21.4385L27.4991 9.00213C27.5053 8.9335 27.4818 8.87912 27.4488 8.84313C27.4167 8.80808 27.3865 8.8 27.3618 8.8H2.63818C2.61347 8.8 2.5833 8.8081 2.55116 8.84313Z" fill="#4C5573"/>
<path fill-rule="evenodd" clip-rule="evenodd" d="M15 15.2C15.9205 15.2 16.6667 14.4837 16.6667 13.6C16.6667 12.7163 15.9205 12 15 12C14.0796 12 13.3334 12.7163 13.3334 13.6C13.3334 14.4837 14.0796 15.2 15 15.2ZM15 16.4C16.6109 16.4 17.9167 15.1464 17.9167 13.6C17.9167 12.0536 16.6109 10.8 15 10.8C13.3892 10.8 12.0833 12.0536 12.0833 13.6C12.0833 15.1464 13.3892 16.4 15 16.4Z" fill="#4C5573"/>
<path fill-rule="evenodd" clip-rule="evenodd" d="M12.4991 20.0679C11.9494 20.9022 11.6667 22.1304 11.6667 23.6H9.99999C9.99999 21.9768 10.3049 20.405 11.0906 19.2125C11.9083 17.9715 13.2134 17.2 15 17.2C16.7718 17.2 18.1635 17.9565 19.0863 19.168C19.9896 20.354 20.4168 21.9339 20.4168 23.6H18.7501C18.7501 22.1733 18.3813 20.9532 17.7409 20.1124C17.1198 19.2971 16.2198 18.8 15 18.8C13.7951 18.8 13.0169 19.2821 12.4991 20.0679Z" fill="#4C5573"/>
</svg>
