<svg width="26" height="29" viewBox="0 0 26 29" fill="none" xmlns="http://www.w3.org/2000/svg">
<path d="M7.64103 14.2093H17.7949M7.64103 9.55814H17.7949M7.64103 19.4419H14.4103M2 12C2 7.28595 2 4.92894 3.43192 3.46446C4.86385 2 7.16848 2 11.7778 2H14.2222C18.8315 2 21.1362 2 22.568 3.46446C24 4.92894 24 7.28595 24 12V17C24 21.714 24 24.0711 22.568 25.5355C21.1362 27 18.8315 27 14.2222 27H11.7778C7.16848 27 4.86385 27 3.43192 25.5355C2 24.0711 2 21.714 2 17V12Z" stroke="#4C5573" stroke-width="2.5" stroke-linecap="round"/>
</svg>
