<svg width="42" height="42" viewBox="0 0 42 42" fill="none" xmlns="http://www.w3.org/2000/svg">
<path d="M40.125 15.125C40.125 22.1666 34.4446 27.8749 27.4375 27.8749C20.4304 27.8749 14.75 22.1666 14.75 15.125C14.75 8.08335 20.4304 2.37499 27.4375 2.37499C34.4446 2.37499 40.125 8.08335 40.125 15.125Z" fill="#1D4ED8"/>
<path d="M16.3975 4.38417C22.2469 -1.46139 31.7634 -1.46139 37.6129 4.38417C43.4624 10.2297 43.4624 19.7409 37.6129 25.5865C31.7634 31.4321 22.2469 31.4321 16.3975 25.5865C10.5481 19.7409 10.5481 10.2297 16.3975 4.38417ZM18.4804 23.5049C23.1881 28.2086 30.8222 28.2086 35.5299 23.504C40.2376 18.7995 40.2376 11.1704 35.5299 6.4667C30.8222 1.76212 23.189 1.76212 18.4813 6.4667C13.7736 11.1713 13.7727 18.7995 18.4804 23.5049Z" fill="#4C5573"/>
<path d="M33.6484 9.23108C36.0582 12.3257 36.2589 16.5836 34.2494 19.8707C34.0953 20.1239 33.7649 20.2028 33.5124 20.0497C33.2608 19.8948 33.1811 19.5655 33.3351 19.3132C35.1136 16.4047 34.9363 12.6246 32.8041 9.88979C32.6214 9.65707 32.6635 9.32066 32.8973 9.13888C33.13 8.95726 33.4667 8.99844 33.6484 9.23108Z" fill="#D1D8E2"/>
<path d="M1.09062 36.7273L11.9782 26.1288C12.5737 25.5488 13.5247 25.5561 14.1131 26.1431L15.8396 27.8684C16.427 28.4555 16.4334 29.4059 15.8522 30.0001L5.24752 40.8804C4.06992 42.3015 2.33003 42.3857 0.985875 41.0415C-0.360003 39.6992 -0.330534 37.9041 1.09062 36.7273Z" fill="#4C5573"/>
</svg>
