<?xml version="1.0" encoding="UTF-8"?>
<svg id="Layer_2" data-name="Layer 2" xmlns="http://www.w3.org/2000/svg" viewBox="0 0 537.18 819.55">
  <defs>
    <style>
      .cls-1 {
        fill: #5554dd;
      }

      .cls-1, .cls-2, .cls-3, .cls-4 {
        stroke-width: 0px;
      }

      .cls-2 {
        fill: #3f3f86;
      }

      .cls-3 {
        fill: #a2eff9;
      }

      .cls-4 {
        fill: #d4b1fb;
      }
    </style>
  </defs>
  <g id="Layer_1-2" data-name="Layer 1">
    <g>
      <path class="cls-2" d="M537.18,202.67c-1.89,84.67-27.48,162.23-71.24,234.06-7.43,12.2-11.39,23.8-7.12,37.5,11.74,37.67,7.39,73.2-11.9,107.73-8.71,15.59-14.49,32.83-21.45,49.38-5.65,13.43-15.21,23.19-30.01,22.15-14.66-1.03-26.12-9.32-31.22-24.3-6.21-18.27-12.4-36.54-18.86-54.72-1.63-4.59-1.31-12.01-8.34-11.56-7.06.46-14.64,1.88-18.03,10.13-4.29,10.46-8.98,20.75-13.33,31.19-6.48,15.55-16.28,21.26-33.03,13.82-37.08-16.46-74.61-31.93-111.82-48.09-20.4-8.86-22.88-15.41-14.57-35.75,4.03-9.85,7.79-19.87,12.67-29.3,4.42-8.55-.76-14.49-4.96-19.77-4.7-5.91-9.64.93-13.91,2.75-16.51,7.06-32.62,15.03-48.98,22.45-14.37,6.52-28.71,7.45-40.88-4.2-11.83-11.33-10.38-25.04-4.42-38.83,11.61-26.85,23.71-53.49,34.73-80.58,9.04-22.24,28.43-33.2,47.27-44.01,16.88-9.69,24.81-22.83,30.08-41.38,30.64-107.93,86.78-198.31,184.09-259.14,29-18.13,60.06-31.57,93.13-40.06,25.81-6.63,45.49,2.29,58.61,26.06,29.96,54.28,42.88,112.86,43.48,174.49ZM525.96,202.94c-1-21.67-3.29-42.81-6.28-63.97-1.6-11.34-6.64-17.08-17.02-21.43-46.02-19.25-91.81-39.04-137.39-59.31-10.92-4.85-19.13-4.37-29.27,2.53-83.11,56.53-132.96,136.42-162.89,230.32-18.08,56.74-24.44,114.36-11.74,173.38,4.15,19.29,13.86,31.56,32.77,38.82,33.51,12.87,66.81,26.57,99.11,42.17,21.78,10.52,40.56,9.69,59.4-4.7,6.35-4.84,13.29-8.94,19.43-14.01,101.71-84.08,143.61-196.47,153.88-323.8ZM447.27,481.09c-15.19,12.83-32.79,26.02-48.3,41.32-14.24,14.04-41.84,18.73-43.31,39.22-1.36,18.96,11.36,38.94,17.87,58.47.42,1.26.72,2.56,1.17,3.81,3.41,9.6,10.19,16.16,20.14,17.16,11.01,1.12,16.28-7.02,20.15-16.05,10.45-24.42,20.02-49.28,31.72-73.1,12.96-26.4,5.28-51.23.58-70.83ZM147.07,343.91c-22.6,16.24-45,23.74-54.81,46.37-11.87,27.41-23.58,54.9-35.49,82.3-3.62,8.33-6.14,16.7,1.03,24.13,7.38,7.65,16.9,7.85,25.91,3.91,19.47-8.51,38.56-17.87,57.9-26.7,5.55-2.53,8.61-6,6.98-12.37-9.56-37.31-7.59-75-1.52-117.65ZM307.24,571.53c-.46-10.22-8.03-10.23-12.87-12.36-30.87-13.64-61.94-26.82-93.01-40.02-31.11-13.22-30.71-12.98-44,18.77-4.53,10.83-3.59,16.39,8.02,21.14,37.44,15.31,74.47,31.64,111.71,47.45,4.03,1.71,9.63,5.87,12.58.74,6.87-11.99,12.31-24.81,17.57-35.72ZM511.81,108.31c-6.91-34.08-19.74-60.79-35.86-85.91-6.17-9.61-16.44-12.97-28.12-10.17-28.54,6.85-56.23,15.88-83.77,32.33,49,21.14,96.32,41.55,147.75,63.74Z"/>
      <path class="cls-2" d="M44.32,636.37c11.53,5.96,16.67,1.03,20.35-12.36,4.97-18.05,21.6-25.57,39.55-20.15,6.97,2.1,13.73,5.16,20.25,8.46,10.2,5.15,18.45,9.26,24.32-6.43,3.92-10.48,13.95-13.02,25.16-8.05,23.11,10.23,46.41,20.03,69.69,29.87,12.33,5.22,18.78,14.63,13.31,26.93-5.37,12.1.44,14.96,9.49,18.2,6.86,2.46,13.6,5.46,20.05,8.86,21.68,11.43,26.96,29.24,13.07,49.29-5.37,7.75-3.56,9.92,2.75,14.79,20.31,15.67,25.09,35.19,14.28,53.83-11.19,19.3-30.46,25.1-53.71,15.2-77.06-32.82-154-65.91-230.95-98.99-4.86-2.09-9.65-4.56-14.01-7.54-15.51-10.62-21.6-28.69-15.73-45.58,5.77-16.57,22.66-27.56,42.12-26.32ZM97.3,615.76c-1.42-.54-2.85-1-4.34-1.26-7.83-1.38-15.55,6.34-17.78,13.33-3.02,9.44.4,17.63,8.65,22.26,10.99,6.17,22.83,10.82,34.22,16.29,4.25,2.04,9.29,4.87,6.1,10.36-2.29,3.94-7.24,2.22-10.95.61-19.53-8.48-38.87-17.4-58.55-25.5-18.06-7.43-34.51-1.84-40.55,12.9-6.24,15.24.65,30.16,18.83,38.48,19.36,8.87,39.09,16.91,58.67,25.29,58.76,25.17,117.44,50.52,176.32,75.41,17.86,7.55,32.53,2.64,39.34-11.73,7.19-15.17.94-30.9-16.28-39.62-7.69-3.9-15.91-6.76-23.83-10.21-3.69-1.61-7.88-3.56-6.8-8.43,1.23-5.55,6.14-3.83,9.85-3.4,11.11,1.28,20.25-1.29,23.47-13.22,2.44-9.02,1.11-18.64-8.11-22.43-12.72-5.23-23.76-17.72-39.36-12.21-3.28,1.16-4.6,9.77-10.1,6.11-5.53-3.68-1.82-9.5.3-14.38,2.39-5.49,4.02-11.37,6.84-16.61,5.98-11.11,1.99-17.11-8.95-21.25-12.43-4.71-24.53-10.32-36.76-15.55q-33.8-14.45-50.68,17.13c-1.24,2.32-2.03,5.21-3.91,6.79-3.67,3.09-9.09,2.63-8.86-2.36.32-6.88-1.48-14.11-7.51-18.11-6.88-4.56-11.48-7.49-19.1-10.13-1.87-.65-8.33,2.14-10.18,1.44Z"/>
      <path class="cls-4" d="M447.27,481.09c4.7,19.61,12.39,44.43-.58,70.83-11.69,23.82-21.26,48.68-31.72,73.1-3.87,9.03-9.14,17.17-20.15,16.05-9.94-1.01-16.72-7.57-20.14-17.16-.44-1.25-.75-2.55-1.17-3.81-6.51-19.53-19.23-39.51-17.87-58.47,1.47-20.49,29.08-25.18,43.31-39.22,15.51-15.3,33.12-28.49,48.3-41.32Z"/>
      <path class="cls-4" d="M147.07,343.91c-6.06,42.65-8.04,80.34,1.52,117.65,1.63,6.37-1.43,9.84-6.98,12.37-19.33,8.83-38.43,18.18-57.9,26.7-9.01,3.94-18.53,3.74-25.91-3.91-7.17-7.43-4.65-15.8-1.03-24.13,11.91-27.4,23.62-54.88,35.49-82.3,9.8-22.63,32.2-30.14,54.81-46.37Z"/>
      <path class="cls-4" d="M307.24,571.53c-5.26,10.92-10.69,23.74-17.57,35.72-2.94,5.14-8.54.97-12.58-.74-37.24-15.81-74.27-32.14-111.71-47.45-11.62-4.75-12.56-10.31-8.02-21.14,13.29-31.75,12.89-31.99,44-18.77,31.06,13.2,62.13,26.38,93.01,40.02,4.84,2.14,12.41,2.15,12.87,12.36Z"/>
      <path class="cls-3" d="M97.62,614.51c11.39.08,24.22,3.81,32.13,12.33,3.91,4.21,3.19,10.94,4.36,16.14,1.03,4.58,5.4,4.84,8.84,1.94,1.88-1.58,2.67-4.47,3.91-6.79q16.88-31.57,50.68-17.13c12.24,5.23,24.33,10.84,36.76,15.55,10.94,4.14,14.92,10.13,8.95,21.25-2.82,5.25-4.45,11.12-6.84,16.61-2.12,4.88-5.83,10.7-.3,14.38,4.74,3.16,11.41-7.34,16.33-7.79,9.52-.86,20.32,6.07,28.09,10.68,4.46,2.65,9.05,5.5,11.8,9.9,2.79,4.47,3.31,10.21,1.67,15.21-3.59,10.94-14.1,14.7-24.76,13.6-3.74-.39-7.82-1.22-8.88,3.54-1.08,4.87,3.11,6.82,6.8,8.43,7.93,3.45,16.14,6.31,23.83,10.21,17.22,8.72,23.47,24.45,16.28,39.62-6.81,14.37-21.49,19.28-39.34,11.73-58.88-24.89-117.56-50.23-176.32-75.41-19.58-8.39-39.31-16.43-58.67-25.29-18.18-8.33-25.07-23.25-18.83-38.48,6.04-14.74,22.49-20.33,40.55-12.9,19.68,8.1,39.02,17.02,58.55,25.5,3.72,1.61,8.67,3.33,10.95-.61,3.19-5.49-1.85-8.32-6.1-10.36-11.39-5.48-23.23-10.12-34.22-16.29-11.48-6.44-13.03-23.35-2.12-31.14,4.4-3.15,9.93-4.41,15.34-4.43.19,0,.38,0,.57,0ZM263.26,765.17c-1.1-1.49-2.14-4.44-4.1-5.32-21.1-9.44-42.32-18.61-63.58-27.69-3.43-1.47-6.65-.28-8.09,3.38-1.57,4,1.24,6.2,4.3,7.54,20.56,9.05,41.16,18.04,61.83,26.84,3.89,1.66,7.9,1.73,9.65-4.76Z"/>
      <path class="cls-1" d="M350.64,203.45c33.38,3.77,56.14,16.19,67.3,45.02,10.69,27.62,5.54,52.37-14.71,73.41-7.45,7.74-11.2,15.88-11.99,26.27-.7,9.27-7.67,15.2-14.5,8.69-13.01-12.39-29.26-10.73-44.25-14.72-32.14-8.54-55.06-44.01-49.83-76.81,5.74-36.01,38.22-63.71,67.98-61.87ZM357.31,322.13c20.43.68,42.42-22.52,43.54-45.93,1.26-26.33-20.09-49.53-46.18-50.17-26.9-.66-48.95,20.08-49.6,46.66-.73,29.96,18.68,48.33,52.24,49.44Z"/>
      <path class="cls-2" d="M263.26,765.17c-1.75,6.49-5.76,6.42-9.65,4.76-20.67-8.8-41.26-17.79-61.83-26.84-3.06-1.35-5.87-3.54-4.3-7.54,1.44-3.66,4.66-4.85,8.09-3.38,21.26,9.07,42.48,18.25,63.58,27.69,1.97.88,3,3.83,4.1,5.32Z"/>
    </g>
  </g>
</svg>