<svg width="29" height="32" viewBox="0 0 29 32" fill="none" xmlns="http://www.w3.org/2000/svg">
<path d="M3.4444 14.0949C4.07091 14.5105 4.47402 15.2187 4.47402 15.9999C4.47401 16.7812 4.0709 17.4893 3.4444 17.905C3.01807 18.1878 2.74338 18.4139 2.54796 18.6828C2.11984 19.2721 1.9309 20.0166 2.0227 20.7529C2.09153 21.305 2.40041 21.8699 3.01816 22.9999C3.63592 24.1297 3.9448 24.6946 4.36324 25.0336C4.92117 25.4857 5.62632 25.6852 6.32356 25.5883C6.6418 25.5441 6.96451 25.4059 7.40956 25.1575C8.06383 24.7924 8.84624 24.7779 9.4871 25.1686C10.1279 25.5593 10.5071 26.282 10.5347 27.0628C10.5535 27.5941 10.6016 27.9584 10.7245 28.2716C10.9936 28.9576 11.5098 29.5027 12.1595 29.7869C12.6469 30 13.2645 30 14.5001 30C15.7356 30 16.3533 30 16.8407 29.7869C17.4903 29.5027 18.0066 28.9576 18.2757 28.2716C18.3985 27.9584 18.4466 27.5941 18.4655 27.0629C18.493 26.282 18.8722 25.5593 19.5131 25.1686C20.1539 24.778 20.9362 24.7926 21.5904 25.1577C22.0356 25.406 22.3583 25.5442 22.6765 25.5885C23.3738 25.6855 24.079 25.4858 24.6369 25.0338C25.0553 24.6948 25.3642 24.1298 25.982 23C26.257 22.497 26.4709 22.106 26.6294 21.7781M25.5557 17.9051C24.9292 17.4895 24.5262 16.7813 24.526 16.0001C24.526 15.2188 24.9292 14.5105 25.5557 14.0949C25.982 13.8121 26.2566 13.586 26.452 13.317C26.8801 12.7279 27.0691 11.9833 26.9773 11.247C26.9085 10.6948 26.5996 10.1299 25.9818 9.00007C25.3641 7.87021 25.0552 7.3053 24.6367 6.96625C24.0788 6.51417 23.3736 6.31466 22.6764 6.41158C22.3582 6.45584 22.0355 6.59396 21.5904 6.84236C20.9361 7.2075 20.1537 7.22206 19.513 6.83134C18.8722 6.44066 18.493 5.71798 18.4655 4.93724C18.4466 4.40593 18.3985 4.04169 18.2757 3.72848C18.0066 3.04241 17.4903 2.49732 16.8407 2.21314C16.3533 2 15.7356 2 14.5001 2C13.2645 2 12.6469 2 12.1595 2.21314C11.5098 2.49732 10.9936 3.04241 10.7245 3.72848C10.6016 4.04166 10.5535 4.40587 10.5347 4.93712C10.5071 5.71792 10.1279 6.44067 9.48705 6.83134C8.84623 7.22203 8.06388 7.20743 7.40968 6.84232C6.96458 6.5939 6.64184 6.45577 6.32358 6.41151C5.62633 6.31459 4.92118 6.5141 4.36325 6.96618C3.94481 7.30523 3.63594 7.87016 3.01817 9C2.74316 9.50301 2.52936 9.89403 2.3707 10.2218M18.4818 16C18.4818 18.323 16.6991 20.2061 14.5 20.2061C12.3009 20.2061 10.5182 18.323 10.5182 16C10.5182 13.677 12.3009 11.7939 14.5 11.7939C16.6991 11.7939 18.4818 13.677 18.4818 16Z" stroke="#4C5573" stroke-width="3" stroke-linecap="round"/>
</svg>
